<svg width="54" height="52" viewBox="0 0 54 52" fill="" xmlns="http://www.w3.org/2000/svg">
<rect opacity="0.01" x="30" y="14" width="24" height="24" fill="black"/>
<path d="M39 17H35C33.8954 17 33 17.8954 33 19V23C33 24.1046 33.8954 25 35 25H39C40.1046 25 41 24.1046 41 23V19C41 17.8954 40.1046 17 39 17Z" fill="#4379EE"/>
<path d="M49 17H45C43.8954 17 43 17.8954 43 19V23C43 24.1046 43.8954 25 45 25H49C50.1046 25 51 24.1046 51 23V19C51 17.8954 50.1046 17 49 17Z" fill="#4379EE"/>
<path d="M39 27H35C33.8954 27 33 27.8954 33 29V33C33 34.1046 33.8954 35 35 35H39C40.1046 35 41 34.1046 41 33V29C41 27.8954 40.1046 27 39 27Z" fill="#4379EE"/>
<path d="M49 27H45C43.8954 27 43 27.8954 43 29V33C43 34.1046 43.8954 35 45 35H49C50.1046 35 51 34.1046 51 33V29C51 27.8954 50.1046 27 49 27Z" fill="#4379EE"/>
<rect x="-1" width="4" height="52" rx="1" fill="#4880FF"/>
</svg>

